/* XPM */
static char *background[] = {
/* columns rows colors chars-per-pixel */
"32 32 37 1 ",
"  c #3C2314",
". c #3D2414",
"X c #3F2414",
"o c #392213",
"O c #3B2313",
"+ c #382112",
"@ c #3C2313",
"# c #3E2414",
"$ c #3D2514",
"% c #402515",
"& c #3A2413",
"* c #351F11",
"= c #402615",
"- c #3D2615",
"; c #3E2615",
": c #382212",
"> c #3A2112",
", c #3E2515",
"< c #3D2314",
"1 c #402716",
"2 c #362011",
"3 c #3A2213",
"4 c #392212",
"5 c #3D2515",
"6 c #392312",
"7 c #372111",
"8 c #3A2212",
"9 c #3B2514",
"0 c #3B2413",
"q c #352010",
"w c #3E2514",
"e c #3A2313",
"r c #392112",
"t c #3C2514",
"y c #392313",
"u c #372012",
"i c #3C2413",
/* pixels */
" .Xo..XO+@##$%%& .Xo..XO+@##$%%&",
"#*=-O;%%#=@*:>,X#*<-O;%%#=@*:>,X",
"%1OX.=#1@@.=,%O=%1OX.=#1@@.=,%O=",
"=2O$OX$O#>.3%.X3=2O$OX$O#>.3%.X3",
"%OX.<O45@.6X=7X>%OX.<O45@.6X=7X>",
"89X%$.0@>O@%84=389X%$.0@>O@%84=3",
"X=%@.q8$%#%;#%%.X=%@.q8$%#%;#%%.",
"#<O.X=%#@1@#+$#;#<O.X=%#@1@#+$#;",
"=,@%%$%8-@@w.@XX=,@%%$%8-@@w.@XX",
"8,e1r%@=#:#X@4;%8,e1r%@=#:#X@4;%",
"<;%@@@%X89#%+&8#<;%@@@%X89#%+&8#",
"<Xr:t.o&@%#=#.@.<Xr:t.o&@%#=#.@.",
".#t#O%.%X,..7O63.#t#O%.%X,..7O63",
"=y##=u%-%w1740X.=y##=u%-%w1740X.",
"%=@@.i@.=%O..<,#%=@@.i@.=%O..<,#",
"##,%%81>.;##0%%###,%%81>.;##0%%#",
" .Xo..XO+@##$%%& .Xo..XO+@##$%%&",
"#*=-O;%%#=@*:>,X#*=-O;%%#=@*:>,X",
"%1OX.=#1@@.=,%O=%1OX.=#1@@.=,%O=",
"=2O$OX$O#>.3%.X3=2O$OX$O#>.3%.X3",
"%OX.<O45@.6X=7X>%OX.<O45@.6X=7X>",
"89X%$.0@>O@%84=389X%$.0@>O@%84=3",
"X=%@.q8$%#%;#%%.X=%@.q8$%#%;#%%.",
"#<O.X=%#@1@#+$#;#<O.X=%#@1@#+$#;",
"=,@%%$%8-@@w.@XX=,@%%$%8-@@w.@XX",
"8,e1r%@=#:#X@4;%8,e1r%@=#:#X@4;%",
"<;%@@@%X89#%+&8#<;%@@@%X89#%+&8#",
"<Xr:t.o&@%#=#.@.<Xr:t.o&@%#=#.@.",
".#t#O%.%X,..7O63.#t#O%.%X,..7O63",
"=y##=u%-%w1740X.=y##=u%-%w1740X.",
"%=@@.i@.=%O..<,#%=@@.i@.=%O..<,#",
"##,%%81>.;##0%%###,%%81>.;##0%%#"
};
