/* XPM */
static char *exit[] = {
/* columns rows colors chars-per-pixel */
"32 32 104 2 ",
"   c #351F11",
".  c #362111",
"X  c #3C2414",
"o  c #3D2719",
"O  c #3D291C",
"+  c #372D25",
"@  c #3C2D23",
"#  c #3A2E28",
"$  c #3C322D",
"%  c #3B3534",
"&  c #3C393B",
"*  c #402515",
"=  c #402817",
"-  c #412C1D",
";  c #412E22",
":  c #423125",
">  c #423329",
",  c #413630",
"<  c #453B34",
"1  c #423D3C",
"2  c #46403B",
"3  c #4B443E",
"4  c #51473D",
"5  c #3C3D43",
"6  c #3D4047",
"7  c #3D4149",
"8  c #3F4453",
"9  c #444244",
"0  c #4A4543",
"q  c #4B4847",
"w  c #42434C",
"e  c #4E4C4E",
"r  c #414653",
"t  c #484B54",
"y  c #434A5B",
"u  c #4E5054",
"i  c #4F5058",
"p  c #545557",
"a  c #54565E",
"s  c #454E64",
"d  c #464F68",
"f  c #465064",
"g  c #495163",
"h  c #465068",
"j  c #4A556E",
"k  c #545962",
"l  c #595C64",
"z  c #52596C",
"x  c #5B5F68",
"c  c #4C5671",
"v  c #4D5974",
"b  c #545D70",
"n  c #525E7A",
"m  c #7D5264",
"M  c #76566B",
"N  c #785569",
"B  c #74596E",
"V  c #6E5D74",
"C  c #6A5F78",
"Z  c #715A71",
"A  c #5B606C",
"S  c #5D6473",
"D  c #53617F",
"F  c #5A647C",
"G  c #5D687A",
"H  c #606165",
"J  c #64676E",
"K  c #67696F",
"L  c #7B6E64",
"P  c #736C69",
"I  c #626674",
"U  c #6E6477",
"Y  c #696C77",
"T  c #64637E",
"R  c #6A637A",
"E  c #646A7E",
"W  c #6C6D7C",
"Q  c #726173",
"!  c #716D76",
"~  c #716778",
"^  c #736F7E",
"/  c #767073",
"(  c #8D4753",
")  c #8C4854",
"_  c #844D5C",
"`  c #894A58",
"'  c #84515E",
"]  c #8B595E",
"[  c #965654",
"{  c #814F60",
"}  c #805061",
"|  c #835B64",
" . c #8D6D6B",
".. c #996C61",
"X. c #866E70",
"o. c #566482",
"O. c #5C6785",
"+. c #5B6886",
"@. c #5B6A89",
"#. c #616683",
"$. c #636B83",
"%. c #626F88",
"&. c #687086",
"*. c #62708D",
/* pixels */
"X X * X X X X X . X * X X * * . X X * . X X * X   X X * X * * X ",
"X   = X X X * * X * X   X . * * *   * X X * * * X * X   X . X X ",
"* * X X X * X * X X X X * * X * * *   * X * X = X X * * X * X * ",
"* . X X X * X X X X X X * X * . * . X * X * X . *   X X * * *   ",
"X X X X X X X X X X X * X . X X * X X X X X X X X * . * * . * . ",
"X X * * X X X X X X X X X X X X . X * * X X X X . . X * X . *   ",
"X * * X X . X X * X = o X O O @ - O ; O o . X X * * * * X * * * ",
"* X X X * * X X X - ; > , 2 3 3 4 4 2 0 < > > - X * X * . * * * ",
"* X X * X X = o @ < q e a A J P L P J S l u e 1 : o X * X X X X ",
"X X X * X X X : 2 a S S O.%.&.X... .^ *.%.G S A e > O X X X * * ",
"X X * X X o > 0 l %.*.*.%.@.E ' [ ] Z #.@.*.*.*.S u < ; . X X X ",
"X X   X o > q A E #.#.$.#.T V m ' ' M C #.$.#.#.$.I p < @ X X X ",
"* X X o @ 0 l Y W R B V V M m m ' ' _ N Z V Z V W W J t $ O X X ",
"* X X O % t S W ~ M _ ' m _ ` m N } _ _ m } _ m Q W Y k 5 # X X ",
"* * X @ & f F E R B _ _ ` ` ` N V B m ` ` _ ` N U $.E z 8 $ O X ",
"X X X # 5 h D +.@.@.O.V m ( _ M V B m ) ( N #.O.+.O.+.v 8 % O X ",
"X X o + 5 d o.+.@.+.O.M m m ' m m m { m m m T O.@.+.O.c 8 & O . ",
"*   X @ % y c o.+.o.T _ ` m M B V B M m _ ( M #.+.O.D d 5 # O X ",
"* * X o # 5 s n O.+.U m m N V T #.T C V N ` M R O.o.c 8 % @ X X ",
"* . X . + % 7 h D T U V C T O.+.O.O.O.#.T V ~ R o.c y & @ O = . ",
"* X X X o O $ 7 i S / E O.O.+.+.+.+.+.+.+.o.! I k r & # - . *   ",
"X X X * X X O # 5 u H b D D o.o.o.o.o.o.D v A a w % @ =   X * X ",
"* * * X X X . O ; & w r y j j j c c c j f r w 5 > @ * X * * * * ",
"X X X X * * * X o @ # # % 6 7 6 5 7 7 7 & % $ @ o * X *   X X * ",
"* X X X * * * X X X X o O # @ # # $ # # @ o X X o     * * * * * ",
"X * X *   * X * X . X * X X o o X o X X . * X * * . X * X   X * ",
"X X * X X X * * X X X * . X X X X X X X X X * * X X X *   X   * ",
"X *   X X X   X X * X * X X X X X X X X X X . X X * * * * *   * ",
"X X X X X * X * * X X X . X X X X X X X X * X * * * * X . X X . ",
"* X * X *   * X * * * X . X X X * X * X * . * X * X * . X X * X ",
"* * X X X X X X * * X X X X X * * * X X X X X * * * . * X X X * ",
"X X X * * X * X X X X X X * * * X * X * * X * . X X * X X * * X "
};
