/* XPM */
static char *key[] = {
/* columns rows colors chars-per-pixel */
"32 32 167 2 ",
"   c #351F11",
".  c #362011",
"X  c #3D2414",
"o  c #3F2817",
"O  c #3F2818",
"+  c #323C39",
"@  c #402615",
"#  c #412817",
"$  c #422718",
"%  c #432B1B",
"&  c #4C3425",
"*  c #4E392A",
"=  c #513B2D",
"-  c #553F31",
";  c #3D453B",
":  c #424A3D",
">  c #594234",
",  c #5B4639",
"<  c #5D483B",
"1  c #4E543E",
"2  c #51563F",
"3  c #474E41",
"4  c #47504C",
"5  c #49524D",
"6  c #545940",
"7  c #50574D",
"8  c #505541",
"9  c #535B56",
"0  c #634E41",
"q  c #655145",
"w  c #685346",
"e  c #6A564A",
"r  c #6D594D",
"t  c #6F5F55",
"y  c #715E52",
"u  c #5F6242",
"i  c #59615A",
"p  c #696A44",
"a  c #777647",
"s  c #7B7947",
"d  c #78774A",
"f  c #7D7B4A",
"g  c #636750",
"h  c #64695C",
"j  c #726156",
"k  c #766459",
"l  c #78665B",
"z  c #7A695E",
"x  c #717354",
"c  c #75785F",
"v  c #7F7E52",
"b  c #5E6663",
"n  c #606762",
"m  c #616964",
"M  c #7C6C61",
"N  c #6D726D",
"B  c #71766F",
"V  c #737764",
"C  c #6F7673",
"Z  c #757A75",
"A  c #747976",
"S  c #817F52",
"D  c #84746A",
"F  c #817167",
"G  c #8B7D73",
"H  c #877B72",
"J  c #7F8063",
"K  c #86824A",
"L  c #8D894B",
"P  c #938E4D",
"I  c #9B944E",
"U  c #97914D",
"Y  c #848355",
"T  c #83835B",
"R  c #8F8B54",
"E  c #918F5F",
"W  c #969154",
"Q  c #96925C",
"!  c #9B965C",
"~  c #9C9655",
"^  c #A79E50",
"/  c #A89F50",
"(  c #AAA150",
")  c #ABA35C",
"_  c #B3A852",
"`  c #BAAE54",
"'  c #B9AF5B",
"]  c #B3A855",
"[  c #BFB35A",
"{  c #868661",
"}  c #8C8B60",
"|  c #8E8E6E",
" . c #93926E",
".. c #8D8077",
"X. c #8F837A",
"o. c #92857C",
"O. c #8F9072",
"+. c #97997F",
"@. c #999979",
"#. c #C1B455",
"$. c #CBBC59",
"%. c #C7B959",
"&. c #CFC058",
"*. c #D3C459",
"=. c #D8C75A",
"-. c #DBC95B",
";. c #E0CE5B",
":. c #E4D15C",
">. c #E9D65D",
",. c #EDD95E",
"<. c #F2DD5F",
"1. c #F5E05F",
"2. c #F7E160",
"3. c #FDE661",
"4. c #7F8482",
"5. c #808480",
"6. c #858986",
"7. c #878B89",
"8. c #948B84",
"9. c #9A8F86",
"0. c #9A9B83",
"q. c #97908A",
"w. c #9C918A",
"e. c #9B9691",
"r. c #979A97",
"t. c #9C9A96",
"y. c #9A9E9C",
"u. c #A39790",
"i. c #A99E97",
"p. c #A39C97",
"a. c #9EA08C",
"s. c #9CA19C",
"d. c #A2A492",
"f. c #A3A39C",
"g. c #AAA59C",
"h. c #A7A9A6",
"j. c #AAAAA5",
"k. c #A5A9A8",
"l. c #ADADA9",
"z. c #A3A5A2",
"x. c #B1A7A0",
"c. c #B5ADA9",
"v. c #B8AFA9",
"b. c #AEB1AB",
"n. c #ADB0A6",
"m. c #B0B1AD",
"M. c #BAB2AC",
"N. c #B3B6B2",
"B. c #B4B8B7",
"V. c #BCBBB7",
"C. c #C3BFBB",
"Z. c #C9C2BE",
"A. c #C1C0BD",
"S. c #BFC1C0",
"D. c #C1C4C3",
"F. c #CAC5C1",
"G. c #CEC9C5",
"H. c #CECDCB",
"J. c #D0CBC7",
"K. c #D1CCC8",
"L. c #D2D1CE",
"P. c #D8D3CF",
"I. c #DFDCDA",
"U. c #D6D6D5",
"Y. c #E0DFDE",
"T. c gray91",
"R. c #E5E6E5",
/* pixels */
"X X X X X X X X X X X X X X @ X X X @ X X X @ X X X X X X @ @ X ",
"X   # X X X @ @ X # X . X X X @ X . X X X X @ @ X X X   X   X @ ",
"@ @ X X X @ X & > e e t r r r r r r r r e 0 * $ X X X X X @ X @ ",
"@ . X X X @ @ , 9.G.H.L.K.G.K.K.K.J.H.K.H.x.j O X X X X @ X X X ",
"@ X @ X X = e H g.S.S.S.S.S.S.S.D.D.D.D.D.c.X.j > $ X @ @ . @ . ",
". X @ % % l M.A.7.i i i b i i i i i i 9 i Z l.Z.G & @ @ X . @ X ",
"@ @ % , k 8.l.j.O.d a a a a a a a a a a d { d.N.w.D w & @ @ @ X ",
"@ X & H A.b.Z c ) *.*.*.*.*.*.*.=.*.*.*.=.' { N y.F.w.,   X @ X ",
"& r D u.b.d.{ U &.2.=.` _ _ _ _ _ _ _ $.<.;.( Y 0.l.s.X.j - @ X ",
", u.L.s.b Y %.:.2.,.^ u 1 1 1 1 1 1 8 P -.2.,.*.~ i 7.F.M.k $ @ ",
"0 v.T.s.5 d &.3.3.,.U : + + + + + + + f *.3.3.>.P : 6.U.H.M O X ",
"0 x.Y.s.9 f $.2.3.,.I 8 ; ; ; ; ; ; : K *.3.2.-.W 7 6.L.Z.z $ X ",
"* l 8.e.y.0.Q ( =.<.&.^ I I I I I I I #.>.:.` ~ @.s.t.q.D , X X ",
"$ % > o.K.b.B x ] :.,.<.<.<.<.1.<.<.<.<.,.%.Y h t.L.i.0 $ O X X ",
"X $ % q D q.z.g. .P [ <.3.3.3.3.1.1.3.*.I E a.j.e...t & X X X X ",
"X X $ $ % z M.A.7.h ~ =.,.2.3.3.3.<.:.) x Z m.Z...= % X X @ @ X ",
"X X X X # = r G f.N.@.J / :.3.3.1.` K O.n.c.8.l , O X X X X @ X ",
"X . @ X X o % w v.Y.s.5 f =.3.3.,.U 1 A N.V.G q = $ X   X X X X ",
"@ @ X X X o X w v.T.s.5 f &.3.3.>.U 1 4 m 5.h.N.D & X @ X @ X @ ",
"X . X X X X X q v.T.s.5 s *.3.3.,._ s p p V g.S.q.k , % @ X X X ",
"@ X X X X X X q v.T.s.5 s *.1.3.3.:.-.=.*.' { C t.F.9., @   X X ",
"X X X @ X X X q v.T.s.5 a *.3.3.2.-.#.` ` ) O.J t.v.G > X X @   ",
"X @ @ X X . X q m.T.s.4 s *.3.3.,.( p 2 6 V b.H.w.w = % @ @ @ X ",
"@ X X X X o X q M.T.s.5 f *.3.3.<.#.P K K } a.h.e.X.r & X X X @ ",
"@ X X X @ X @ q M.T.y.5 f *.3.3.3.,.:.-.-.[ Y m y.K.u.< @ X X X ",
"X X X @ . @ X w v.T.y.5 s *.3.3.1.$.( I I ! 0.r.t.w.z = X X X @ ",
"X X @ X . X @ 0 g.U.y.9 S %.,.>.-.~ g 7 7 A m.G.o.- % $   X X X ",
"X @ X . X X X & k o.e.z.0.E L L R @.f.k.k.f.q.G q % X @ @ X X X ",
"X X X @ X @ X @ % = o.G.l.B 9 9 b s.H.Y.I.M.l % @ X X X . . . X ",
"@ X X X @ . @ X @ % 0 M 8.j.B.B.b.e.G D D j > # @ @ @ . X X @ X ",
"@ @ X X X X X X # @ X $ k v.P.P.Z.G = X @ X X X @ @ . @ X X X X ",
"X X X @ X X @ X X X X @ = e k k y > % @ X X @ X X @ @ X X @ @ @ "
};
