/* XPM */
static char *knight[] = {
/* columns rows colors chars-per-pixel */
"32 32 47 1 ",
"  c #3C2314",
". c #3D2414",
"X c #3F2414",
"o c #392213",
"O c #3B2313",
"+ c #382112",
"@ c #3C2313",
"# c #3E2414",
"$ c #3D2514",
"% c #402515",
"& c #3A2413",
"* c #351F11",
"= c #402615",
"- c #3D2615",
"; c #3E2615",
": c #382212",
"> c #3A2112",
", c #3E2515",
"< c #3D2314",
"1 c #402716",
"2 c #362011",
"3 c #3A2213",
"4 c #392212",
"5 c #3D2515",
"6 c black",
"7 c #392312",
"8 c #372111",
"9 c #3A2212",
"0 c #3B2514",
"q c #3B2413",
"w c #EC4700",
"e c #FAB40B",
"r c #352010",
"t c #3E2514",
"y c #3A2313",
"u c #392112",
"i c #EB8931",
"p c #F4B990",
"a c #3C2514",
"s c #392313",
"d c #372012",
"f c #3C2413",
"g c #342A97",
"h c #9964F9",
"j c #732930",
"k c white",
"l c #31A2F2",
/* pixels */
" .Xo..XO+@##$%%& .Xo..XO+@##$%%&",
"#*=-O;%%#=@*:>,X#*<-O;%%#=@*:>,X",
"%1OX.=#1@@.=,%O=%1OX.=#1@@.=,%O=",
"=2O$OX$O#>.3%.X3=2O$OX$O#>.3%.X3",
"%OX.<O45@666666666666O45@.7X=8X>",
"90X%$.q@6wwwwweeeeeee6q@>O@%94=3",
"X=%@.r9$6ww6weeeeeeeee6$%#%;#%%.",
"#<O.X=%#@66weeeeeeeeeee6@1@#+$#;",
"=,@%%$%9-6wweeeeeeeeeee6-@@t.@XX",
"9,y1u%@=#6wwewwwwwwwwwe6#:#X@4;%",
"<;%@@@%X96wweip6ppp6pie690#%+&9#",
"<Xu:a.o&@6wweip6iii6pie6@%#=#.@.",
".#a#O%.%X6wweipppppppie6X,..8O73",
"=s##=d%-%6wweipppppppie6%t184qX.",
"%=@@.f@.=6wweipppppppie6=%O..<,#",
"##,%%91>.;6we66iiiii666>.;##q%%#",
" .Xo..XO+@666ghhhhhhg66O+@##$%%&",
"#*=-O;%%#66hhhhghhhhhg66#=@*:>,X",
"%1OX.=6666ghh66gh666hhg6@@.=,%O=",
"=2O$6666ppg666ggg6j6g6666>.3%.X3",
"%O666hh6pp6666g6666666pp6.7X=8X>",
"906ghhh66666kk66j6wej6pp6O@%94=3",
"X=6gghhggg6kkkk666gg6666%#%;#%%.",
"#<66ggggg6kkklll666666%#@1@#+$#;",
"=,@66ggg6kkklllll66666%9-@@t.@XX",
"9,y1u6g6kkklllll66jj66@=#:#X@4;%",
"<;%@@@6kkklllll6666j66%X90#%+&9#",
"<Xu:a.6kklllll66<X6j6.o&@%#=#.@.",
".#a#O%6klllll6j6.#6j6%.%X,..8O73",
"=s##=d6lllll6qX.=s##=d%-%t184qX.",
"%=@@.f666666.<,#%=@@.f@.=%O..<,#",
"##,%%91>.;##q%%###,%%91>.;##q%%#"
};
