/* XPM */
static char *wall[] = {
/* columns rows colors chars-per-pixel */
"32 32 57 1 ",
"  c #351F11",
". c #362111",
"X c #3C2414",
"o c #3D2719",
"O c #36291B",
"+ c #3B2A1C",
"@ c #3A311F",
"# c #352E24",
"$ c #3B2D21",
"% c #2D332D",
"& c #333125",
"* c #3A3425",
"= c #3A3C27",
"- c #333229",
"; c #353A2D",
": c #393E2B",
"> c #2C3731",
", c #293A35",
"< c #263D3B",
"1 c #293C39",
"2 c #402615",
"3 c #1E453F",
"4 c #1E483F",
"5 c #35422D",
"6 c #39422D",
"7 c #3B4A2F",
"8 c #23433D",
"9 c #2B4439",
"0 c #234C3F",
"q c #294B3C",
"w c #344533",
"e c #364A34",
"r c #3A4D32",
"t c #3B5535",
"y c #3A5A37",
"u c #31563D",
"i c #355C3C",
"p c #3A5B39",
"a c #36603D",
"s c #3A623C",
"d c #1E4840",
"f c #214D40",
"g c #245441",
"h c #265942",
"j c #295C42",
"k c #2B6343",
"l c #2E6A44",
"z c #336341",
"x c #326E44",
"c c #3B6E41",
"v c #337445",
"b c #3B7443",
"n c #367A46",
"m c #397E47",
"M c #3A8247",
"N c #3C8648",
"B c #3E8948",
/* pixels */
"XX2XXXXX.X2$+$$++oXXoX2X.X2XX22X",
"X 2XXX22X2X.XX2oX XXXX22X2X..XX2",
"22XXX2X2XXX2X2XX22XXX2XXXXX222X2",
"2.XXX2XX2.2.XX2X2 XXX2XX2.2.2X2.",
"XX2XXXXXXXX22 X 2X2XXXXXXX 22 2.",
"XX22XXXX.XX2.X2XXo22XXXX.XX2.X2X",
"X22XX.XX2X2o2o****=**+XX2222X22X",
"XXXXX2XXX2o+=7yssppzpr*oX2X2 X22",
"22X2XX2XXX@7anMMMNMmNst*XXX2XX22",
"XXX2XXX2o*tsNBMMMNmmMNmp=oX2X.X2",
"XX2XXXXX*amNBMnnmMNBBBBMs6+2.XXX",
"XXX.XX+5ssmMBNNMNbMNMMNnnp6X2XXX",
"X2X2X*;isnMMBMMMBMNNMMBMnaw+..X.",
"XXXo*5ivlvnNMMnMBNMMnnNMnxi5+X2X",
"22X*eavnvllnMnnMMnnMnnnMnnba6+X2",
"X2+ecnnnlllnkMnlxnvnnnNBBNnxu=2X",
"XX;uvnMnvvxvvnnnvnvnMMNMMvvvp=oX",
"X *9jlvnMMnnMnnnMMnnnnvMvvvje+oX",
"o2+-90jvnvvnnMnnMMMvnnvxlkk0;+X2",
"2.XO%<0jkkkxnMmvxMMnnlxkggf8*oX+",
"2XXX+-<0gdhkxxnnllMnlhh0ff<>$XXO",
"XXX2X+#,3dddhxnlgklkfd008<%$X +-",
"222XX.X#-><88gjhffhd33d3>%$XX22$",
"XXXX22XXo$&&%188d38838<,#oX2 XX+",
"22X22X2 XXXX$-,<<<<<<11#O 22X222",
"XXX2 2222.X2XXXXX2X2XXX22  2X X2",
"XX2XXX22.X22.XXXXo2XXXX2 X22 X 2",
"X2 XX2 XX222XXXX 2 .XXXX222222 2",
"X2XXX2X22XXX X2 22XXX2X2222X XX ",
"2.2X2 2X222.XX2 2XX22.2X2X2.XX2X",
"22XXX2XX22 XXXX222XXXXX222XXXX2X",
"X2222X2 X222X222XX222X2 XXXXX222"
};
